<mxfile host="app.diagrams.net" modified="2023-12-18T10:38:55.320Z" agent="Mozilla/5.0 (Windows NT 10.0; Win64; x64) AppleWebKit/537.36 (KHTML, like Gecko) Chrome/120.0.0.0 Safari/537.36 Edg/120.0.0.0" version="22.1.11" etag="aW5_n2Ikp7eY2oBxsSQ3" type="github">
  <diagram name="第 1 页" id="RQkq3oWCGLeB8uJh4EHf">
    <mxGraphModel>
      <root>
        <mxCell id="0" />
        <mxCell id="1" parent="0" />
      </root>
    </mxGraphModel>
  </diagram>
</mxfile>
